<?xml version="1.0" standalone="no"?>
<!DOCTYPE svg PUBLIC "-//W3C//DTD SVG 20010904//EN"
 "http://www.w3.org/TR/2001/REC-SVG-20010904/DTD/svg10.dtd">
<svg version="1.0" xmlns="http://www.w3.org/2000/svg"
 width="260.000000pt" height="260.000000pt" viewBox="0 0 260.000000 260.000000"
 preserveAspectRatio="xMidYMid meet">
<metadata>
Created by potrace 1.14, written by Peter Selinger 2001-2017
</metadata>
<g transform="translate(0.000000,260.000000) scale(0.100000,-0.100000)"
fill="#000000" stroke="none">
<path d="M1390 1980 l-85 -170 -472 0 -473 0 0 -680 0 -680 225 0 225 0 0 545
0 545 795 0 795 0 0 305 0 305 -463 0 -462 0 -85 -170z m840 -85 l0 -85 -331
0 c-182 0 -329 3 -327 8 2 4 21 42 43 85 l39 77 288 0 288 0 0 -85z"/>
<path d="M870 905 l0 -455 220 0 220 0 16 25 c15 23 14 27 -8 67 -21 39 -27
43 -65 46 -53 4 -64 18 -70 92 -7 70 7 94 61 104 28 5 34 12 47 55 15 48 15
49 -13 80 -15 17 -28 38 -28 45 0 22 76 113 98 118 11 3 35 -3 52 -13 32 -20
32 -20 80 3 43 20 49 27 55 63 4 22 12 45 17 52 5 6 38 15 74 18 74 8 89 1
104 -54 9 -32 16 -38 59 -51 47 -15 50 -15 75 7 38 33 64 29 119 -18 51 -44
57 -64 30 -110 -16 -28 -16 -31 5 -74 18 -38 26 -45 51 -45 50 0 72 -27 78
-98 7 -72 -2 -88 -54 -98 -35 -7 -47 -24 -60 -87 -4 -22 1 -35 22 -57 19 -20
25 -34 20 -49 -6 -21 -4 -21 159 -21 l166 0 0 455 0 455 -765 0 -765 0 0 -455z"/>
<path d="M1585 881 c-89 -55 -116 -138 -76 -227 61 -135 248 -136 317 -3 21
42 18 115 -8 161 -45 79 -161 114 -233 69z"/>
</g>
</svg>
